<svg width="400" height="1000" viewBox="0 0 400 1000" fill="none" xmlns="http://www.w3.org/2000/svg">
<path d="M172.484 895.672L177.688 844.625H230.141V856.648H188.727L185.633 884.562C190.648 881.609 196.344 880.133 202.719 880.133C212.047 880.133 219.453 883.227 224.938 889.414C230.422 895.555 233.164 903.875 233.164 914.375C233.164 924.922 230.305 933.242 224.586 939.336C218.914 945.383 210.969 948.406 200.75 948.406C191.703 948.406 184.32 945.898 178.602 940.883C172.883 935.867 169.625 928.93 168.828 920.07H181.133C181.93 925.93 184.016 930.359 187.391 933.359C190.766 936.312 195.219 937.789 200.75 937.789C206.797 937.789 211.531 935.727 214.953 931.602C218.422 927.477 220.156 921.781 220.156 914.516C220.156 907.672 218.281 902.188 214.531 898.062C210.828 893.891 205.883 891.805 199.695 891.805C194.023 891.805 189.57 893.047 186.336 895.531L182.891 898.344L172.484 895.672Z" fill="black"/>
<path d="M221.422 712.617H235.625V723.234H221.422V747H208.344V723.234H161.727V715.57L207.57 644.625H221.422V712.617ZM176.492 712.617H208.344V662.414L206.797 665.227L176.492 712.617Z" fill="black"/>
<path d="M185.422 489.484H195.195C201.336 489.391 206.164 487.773 209.68 484.633C213.195 481.492 214.953 477.25 214.953 471.906C214.953 459.906 208.977 453.906 197.023 453.906C191.398 453.906 186.898 455.523 183.523 458.758C180.195 461.945 178.531 466.188 178.531 471.484H165.523C165.523 463.375 168.477 456.648 174.383 451.305C180.336 445.914 187.883 443.219 197.023 443.219C206.68 443.219 214.25 445.773 219.734 450.883C225.219 455.992 227.961 463.094 227.961 472.188C227.961 476.641 226.508 480.953 223.602 485.125C220.742 489.297 216.828 492.414 211.859 494.477C217.484 496.258 221.82 499.211 224.867 503.336C227.961 507.461 229.508 512.5 229.508 518.453C229.508 527.641 226.508 534.93 220.508 540.32C214.508 545.711 206.703 548.406 197.094 548.406C187.484 548.406 179.656 545.805 173.609 540.602C167.609 535.398 164.609 528.531 164.609 520H177.688C177.688 525.391 179.445 529.703 182.961 532.938C186.477 536.172 191.188 537.789 197.094 537.789C203.375 537.789 208.18 536.148 211.508 532.867C214.836 529.586 216.5 524.875 216.5 518.734C216.5 512.781 214.672 508.211 211.016 505.023C207.359 501.836 202.086 500.195 195.195 500.102H185.422V489.484Z" fill="black"/>
<path d="M233.586 347H166.508V337.648L201.945 298.273C207.195 292.32 210.805 287.492 212.773 283.789C214.789 280.039 215.797 276.172 215.797 272.188C215.797 266.844 214.18 262.461 210.945 259.039C207.711 255.617 203.398 253.906 198.008 253.906C191.539 253.906 186.5 255.758 182.891 259.461C179.328 263.117 177.547 268.227 177.547 274.789H164.539C164.539 265.367 167.562 257.75 173.609 251.938C179.703 246.125 187.836 243.219 198.008 243.219C207.523 243.219 215.047 245.727 220.578 250.742C226.109 255.711 228.875 262.344 228.875 270.641C228.875 280.719 222.453 292.719 209.609 306.641L182.188 336.383H233.586V347Z" fill="black"/>
<path d="M209.258 147H196.18V60.3047L169.953 69.9375V58.125L207.219 44.1328H209.258V147Z" fill="black"/>
</svg>
