<svg width="150" height="1500" viewBox="0 0 150 1500" fill="none" xmlns="http://www.w3.org/2000/svg">
<circle cx="75" cy="75" r="67.5" fill="#FBF1A9"/>
<path d="M92.8291 46.6385C93.1291 47.7103 93.6901 48.7018 94.0936 49.7383C94.8518 51.6875 95.4098 53.6998 95.7728 55.766C96.6713 60.8795 96.1778 66.5315 94.5016 71.4365C93.6121 74.0405 92.3041 76.493 91.2278 79.0138C89.5208 83.012 88.0853 87.1115 84.4553 89.7275C83.7331 90.248 82.8983 90.4738 82.1108 90.8593C79.8698 91.9558 77.2148 93.0358 74.7421 93.434C73.8541 93.5773 72.9653 93.227 72.0623 93.359C68.7653 93.8413 65.7248 94.5628 62.3483 94.325C58.5556 94.058 54.6098 92.9218 51.2948 90.9958C50.2006 90.3598 49.1348 89.6818 48.1133 88.928C47.3393 88.3565 46.6501 87.6635 45.7681 87.2795C46.4056 88.7495 47.7361 89.567 48.7538 90.725C51.0676 93.3583 53.3926 95.969 55.9868 98.3232C58.6853 100.773 61.2046 103.842 64.6928 105.13C66.8386 105.922 68.9798 106.08 71.2246 106.238C73.0966 106.37 75.0383 106.559 76.9186 106.366C80.4743 106 83.9401 104.437 87.1351 102.887C89.6513 101.665 92.1196 100.494 94.1401 98.4433C97.7476 94.7825 99.9638 90.512 101.839 85.73C102.907 83.006 103.901 80.2438 104.189 77.2918C104.375 75.371 104.092 73.1848 103.911 71.2648C103.543 67.3513 102.734 63.7018 101.224 60.071C100.349 57.9665 99.1561 56.072 98.1713 54.0433C97.2751 52.1968 96.2101 50.5115 94.9861 48.8773C94.3628 48.0448 93.7726 47.1013 92.8291 46.6385Z" fill="#333333"/>
<path d="M72.1561 43.59C68.9483 44.0227 65.6746 44.346 62.6101 45.5332C61.1431 46.1018 59.9078 47.136 58.5901 47.9858C56.3626 49.422 54.0241 50.9625 52.2571 52.9913C50.6048 54.888 49.4198 57.3458 48.5296 59.7045C47.4998 62.433 46.5676 65.424 46.1626 68.3153C45.9833 69.5955 45.7381 70.7872 45.8933 72.1035C46.4101 76.4835 49.2061 79.2465 52.8961 81.0982C55.1378 82.2232 57.0533 82.8405 59.5951 82.5788C60.4943 82.4865 61.3763 82.23 62.2748 82.1182C63.4621 81.9705 64.8181 81.9525 65.9596 81.5918C66.7471 81.3427 67.3936 80.844 68.1368 80.5028C70.0096 79.6425 71.8343 78.8385 73.6628 77.871C75.7696 76.7565 78.0961 75.8737 80.0273 74.43C82.5586 72.5377 84.5513 69.3105 85.8691 66.4208C86.3206 65.4308 86.5178 64.368 86.7976 63.321C87.8266 59.4682 88.2368 55.383 86.6701 51.6113C85.9538 49.887 84.8161 48.6135 83.5441 47.3055C82.6793 46.4168 81.7898 45.5332 80.6971 44.94C79.4468 44.2605 77.8831 44.0512 76.5106 43.806C75.0601 43.5473 73.6351 43.3905 72.1561 43.59Z" fill="#333333"/>
<circle cx="75" cy="225" r="67.5" fill="#FBF1A9"/>
<path d="M98.6749 206.382C98.5386 207.434 98.6242 208.497 98.6494 209.604C98.6963 211.686 98.5647 213.593 98.2199 215.652C97.3667 220.749 95.1806 225.789 91.9442 229.81C90.2264 231.945 88.1585 233.864 86.2942 235.857C83.3373 239.019 80.4375 242.274 76.1509 243.488C75.298 243.729 74.44 243.657 73.5719 243.75C71.1018 244.014 68.2499 244.122 65.8003 243.654C64.9205 243.486 64.2078 242.856 63.3178 242.673C60.0682 242.003 56.9774 241.645 53.8982 240.274C50.4394 238.735 47.2661 236.335 44.8184 233.406C44.0105 232.438 43.3034 231.488 42.5795 230.459C42.0274 229.677 41.5746 228.899 40.8696 228.3C40.8883 229.873 41.7758 231.117 42.3274 232.525C43.6008 235.774 44.8294 238.827 46.457 241.912C48.1497 245.122 49.5922 248.792 52.419 251.183C54.1579 252.654 56.1081 253.53 58.1551 254.441C59.8622 255.201 61.6819 255.955 63.5074 256.413C66.9594 257.28 70.6676 257.079 74.1848 256.715C76.9551 256.427 79.6634 256.169 82.2515 254.937C86.8723 252.738 90.4587 249.516 93.8393 245.678C95.7649 243.491 97.5954 241.262 98.8678 238.596C99.6956 236.862 100.224 234.724 100.708 232.865C101.694 229.078 102.144 225.336 101.965 221.425C101.862 219.158 101.428 216.983 101.196 214.75C100.985 212.717 100.589 210.998 99.9993 209.053C99.6991 208.062 99.4327 207.061 98.6749 206.382Z" fill="#333333"/>
<path d="M75.3301 193.679C72.2872 194.089 69.2565 194.372 66.3495 195.498C64.9579 196.037 63.7324 197.006 62.4824 197.812C60.3694 199.174 58.0776 200.588 56.4015 202.513C54.8342 204.312 53.6867 206.629 52.8422 208.866C51.8653 211.454 50.9839 214.3 50.5998 217.043C50.4297 218.258 50.2927 219.489 50.44 220.738C50.9302 224.893 53.5964 227.492 57.1283 229.233C59.3455 230.306 61.0309 230.858 63.4672 230.647C64.319 230.569 65.1884 230.317 66.0407 230.211C67.1669 230.07 68.4217 230.038 69.5046 229.695C70.2516 229.459 70.9068 228.981 71.6119 228.657C73.3883 227.841 75.1071 227.104 76.8416 226.186C78.8401 225.129 80.9857 224.303 82.8177 222.933C85.2189 221.138 87.0672 218.135 88.3172 215.393C88.7455 214.454 88.912 213.415 89.1927 212.401C90.1849 208.752 90.5528 204.955 89.0666 201.377C88.3871 199.741 87.3131 198.523 86.1065 197.282C85.2862 196.439 84.4372 195.574 83.4006 195.012C82.2146 194.367 80.7522 194.137 79.4503 193.904C78.0743 193.659 76.7331 193.489 75.3301 193.679Z" fill="#333333"/>
<circle cx="75" cy="375" r="67.5" fill="#FBF1A9"/>
<path d="M96.7241 385.732C95.9008 385.692 94.9841 385.509 94.1525 386.204C92.5884 387.509 92.2078 387.95 90.4973 389.061C86.2592 391.814 82.5272 394.02 77.4783 393.996C74.7981 393.983 71.6001 393.846 68.9388 393.636C64.7175 393.301 60.2427 391.62 56.7004 389.082C55.9956 388.576 55.5279 387.876 54.9275 387.269C53.2193 385.54 51.3978 383.424 50.2623 381.265C49.8543 380.49 49.9016 379.561 49.4994 378.768C48.0303 375.874 46.4201 373.291 45.591 370.1C44.6598 366.516 45.1759 363.461 45.9246 359.803C46.172 358.595 46.4758 358.064 46.558 356.852C46.6172 355.895 46.0841 355.321 45.6968 354.648C44.2478 355.047 43.2879 356.127 42.6441 357.259C40.9581 360.228 40.1864 361.785 38.8186 364.911C37.3952 368.163 36.45 371.999 36.3444 375.62C36.2795 377.847 36.7984 379.873 37.3493 381.994C37.8088 383.763 39.1761 385.615 39.9387 387.29C41.38 390.46 42.9604 393.174 45.3837 395.642C47.293 397.586 49.141 399.5 51.6614 400.729C56.1613 402.923 60.9776 404.172 65.9746 404.418C68.8211 404.558 71.3464 404.442 74.1608 403.79C75.9921 403.366 78.1726 402.792 79.889 402.029C83.3876 400.474 86.6714 398.09 89.5545 395.569C91.2256 394.107 92.7869 392.7 94.3541 391.161C95.7805 389.76 95.6451 389.652 96.7738 388.015C97.3488 387.181 97.2796 386.556 96.7241 385.732Z" fill="#333333"/>
<path d="M81.7399 349.61C79.2519 349.946 76.9916 350.108 74.6147 351.029C73.4769 351.469 72.3182 352.224 71.2961 352.883C69.5684 353.997 67.4807 355.016 66.1101 356.589C64.8286 358.06 63.8222 359.912 63.1317 361.742C62.333 363.858 61.6208 366.211 61.3067 368.453C61.1677 369.446 61.3342 370.749 61.4546 371.77C61.8554 375.167 64.0761 377.227 67.0558 378.605C69.1329 379.501 70.1276 379.854 72.193 379.792C72.8857 379.756 73.692 379.522 74.3889 379.435C75.3098 379.321 76.2441 379.248 77.1295 378.968C77.7403 378.775 78.3983 378.369 78.9748 378.104C80.4273 377.437 81.7972 376.907 83.2154 376.156C84.8494 375.292 86.4255 374.651 87.9234 373.531C89.8867 372.063 91.2757 369.775 92.2978 367.534C92.648 366.766 92.7242 365.824 92.9984 364.934C93.8563 361.968 94.0952 359.09 92.88 356.165C92.3244 354.827 91.4616 353.8 90.475 352.786C89.8043 352.097 89.0948 351.313 88.2472 350.853C87.2775 350.326 86.1428 350.047 85.0783 349.856C83.9532 349.656 82.8871 349.456 81.7399 349.61Z" fill="#333333"/>
<circle cx="75" cy="525" r="67.5" fill="#FBF1A9"/>
<path d="M66.1251 551.189C66.269 550.352 66.6593 549.179 65.7725 548.658C64.1052 547.677 64.2308 548.058 62.6329 546.958C58.6707 544.229 55.3293 542.679 53.7353 538.159C52.8887 535.759 51.7135 532.627 51.0503 530.181C49.9981 526.301 50.9164 521.308 52.052 517.329C52.278 516.538 52.7545 515.895 53.1052 515.164C54.1034 513.084 55.4116 510.779 56.9781 509.073C57.5406 508.46 58.3863 508.205 58.9661 507.592C61.0828 505.353 62.8762 503.087 65.4631 501.325C68.3689 499.345 70.8828 499.396 74.3925 498.894C75.5512 498.728 75.7603 498.965 76.8301 498.481C77.6959 498.089 77.6958 496.957 77.9387 496.189C77.417 494.734 76.2432 493.803 75.1393 493.617C71.9432 493.077 71.2543 493.115 68.0224 492.892C64.6602 492.661 60.84 493.762 57.5703 494.826C55.559 495.481 53.9142 496.593 52.1943 497.764C50.7599 498.741 49.7277 501.072 48.4739 502.29C46.1024 504.593 43.9971 506.358 42.5665 509.314C41.4402 511.642 40.32 513.907 40.0285 516.553C39.5078 521.277 39.6782 526.188 41.0574 530.733C41.8432 533.322 42.7864 535.324 44.2694 537.631C45.2345 539.132 46.2929 541.108 47.5243 542.398C50.0341 545.027 53.5259 547.191 56.7022 548.962C58.5434 549.987 60.1816 551.089 62.0589 551.997C63.7675 552.824 62.7827 552.195 64.6075 552.68C65.5369 552.927 65.8068 552.291 66.1251 551.189Z" fill="#333333"/>
<path d="M81.2867 510.135C79.5692 510.366 78.411 510.349 76.7701 510.985C75.9846 511.289 74.8956 511.741 74.19 512.196C72.9973 512.965 71.161 513.415 70.2149 514.501C69.3303 515.516 68.5096 516.716 68.0329 517.979C67.4815 519.44 67.0057 521.111 66.7888 522.659C66.6928 523.345 67.3223 524.79 67.4054 525.495C67.6821 527.84 69.2901 529.143 71.5167 530.009C73.4383 530.663 73.4171 530.725 74.9784 530.885C75.4497 530.911 76.1825 530.699 76.6636 530.639C77.2993 530.56 77.775 530.425 78.3862 530.232C78.8079 530.098 79.4878 529.79 79.8857 529.607C80.8885 529.146 81.7686 528.916 82.7476 528.398C83.8756 527.801 84.6342 527.421 85.6683 526.647C87.0236 525.634 87.7567 524.365 88.4623 522.818C88.704 522.288 88.6459 521.467 88.9177 520.741C89.5962 518.726 89.6466 517.158 88.8077 515.139C88.4242 514.216 87.8569 513.45 87.1758 512.75C86.7128 512.274 86.1948 511.592 85.6097 511.275C84.9403 510.911 84.2697 510.549 83.5348 510.417C82.7582 510.279 82.0786 510.028 81.2867 510.135Z" fill="#333333"/>
<circle cx="75" cy="675" r="67.5" fill="#FBF1A9"/>
<path d="M47.2836 672.44C48.0184 672.348 49.0667 672.387 49.3359 671.508C49.8424 669.855 49.5912 669.945 50.2275 668.332C51.8051 664.334 52.6008 661.096 56.2009 658.772C58.1119 657.538 60.5705 655.908 62.56 654.824C65.7156 653.104 70.1647 652.774 73.86 652.936C74.5952 652.968 75.2525 653.249 75.9609 653.402C77.9766 653.839 80.2524 654.498 82.0608 655.506C82.7103 655.868 83.1076 656.551 83.7611 656.928C86.1473 658.304 88.4896 659.393 90.5586 661.277C92.8827 663.393 93.4433 665.62 94.6076 668.568C94.9918 669.541 94.8572 669.814 95.4797 670.654C95.983 671.331 96.9186 671.153 97.6178 671.241C98.7291 670.456 99.2398 669.242 99.1727 668.229C98.981 665.338 98.8057 664.62 98.3284 661.763C97.8323 658.792 96.1755 655.688 94.5719 653.066C93.5854 651.453 92.2771 650.253 90.9018 649.001C89.7548 647.956 87.5731 647.503 86.254 646.666C83.7598 645.081 81.7292 643.656 78.8621 643.025C76.6036 642.529 74.4021 642.024 72.0408 642.32C67.825 642.847 63.6236 644.04 59.9575 646.182C57.8692 647.403 56.2959 648.641 54.5974 650.409C53.4923 651.559 52.0254 652.902 51.1592 654.241C49.3935 656.969 48.2257 660.415 47.3454 663.544C46.8353 665.358 46.2408 667.021 45.8405 668.842C45.4762 670.499 45.7899 669.657 45.7469 671.345C45.7249 672.204 46.295 672.352 47.2836 672.44Z" fill="#333333"/>
<path d="M77.7326 664.133C76.4597 664.305 76.4969 664.006 75.281 664.477C74.6989 664.702 73.2478 664.884 72.7249 665.221C71.841 665.791 69.6004 665.558 68.8993 666.363C68.2437 667.116 67.355 667.83 67.0018 668.766C66.5932 669.848 66.2757 671.192 66.115 672.339C66.0438 672.847 67.6559 675.134 67.7175 675.656C67.9226 677.394 69.2814 678.094 71.3092 678.547C73.8195 679.108 72.2273 678.751 73.6861 679.322C74.02 679.453 74.9554 679.184 75.3119 679.14C75.783 679.081 75.7586 678.793 76.2115 678.65C76.524 678.551 77.5305 678.259 77.8254 678.124C78.5685 677.782 79.0747 677.912 79.8003 677.528C80.6362 677.086 80.4648 676.943 81.2311 676.37C82.2355 675.619 82.276 675.37 82.7989 674.223C82.978 673.831 82.6884 672.844 83.0735 672.056C83.7684 670.634 83.5509 670.406 82.9292 668.909C82.645 668.225 82.2876 667.533 81.7829 667.014C81.4397 666.661 80.993 665.842 80.5594 665.606C80.0633 665.337 79.8175 664.691 79.2729 664.594C78.6974 664.491 78.3194 664.054 77.7326 664.133Z" fill="#333333"/>
<circle cx="75" cy="825" r="67.5" fill="#FBF1A9"/>
<path d="M64.9761 800.479C65.4143 800.877 65.8431 801.412 66.6209 801.375C68.0834 801.307 68.441 801.212 69.9035 801.313C73.5275 801.563 76.5954 801.861 79.4757 804.067C81.0048 805.239 82.798 806.709 84.2303 807.985C86.502 810.01 88.3062 812.967 89.2317 815.959C89.4159 816.555 89.3794 817.159 89.4594 817.768C89.6868 819.499 89.8108 821.502 89.5232 823.231C89.4201 823.852 88.9893 824.364 88.8754 824.992C88.4596 827.287 88.2597 829.466 87.3484 831.653C86.3249 834.11 84.7033 835.593 82.6856 837.363C82.0195 837.947 81.6287 838.1 81.063 838.765C80.6183 839.294 80.7075 839.867 80.6555 840.424C81.6527 840.849 82.6805 840.672 83.534 840.306C85.7883 839.337 86.8509 838.8 88.9918 837.605C91.2192 836.361 93.4073 834.536 95.0401 832.509C96.0445 831.262 96.6273 829.876 97.2333 828.422C97.7386 827.21 97.7333 825.536 98.0245 824.245C98.5757 821.804 98.8763 819.584 98.5607 817.118C98.3117 815.176 98.0853 813.277 97.1757 811.479C95.552 808.269 93.3429 805.443 90.5886 803.131C89.0196 801.815 87.529 800.797 85.6345 799.947C84.4018 799.395 82.9048 798.761 81.5906 798.452C78.9119 797.823 75.9807 797.772 73.2349 797.964C71.6433 798.075 70.139 798.191 68.5732 798.391C67.1481 798.574 67.2472 798.684 65.8897 799.131C65.1983 799.359 64.9925 799.757 64.9761 800.479Z" fill="#333333"/>
<path d="M74.6696 813.726C73.3391 813.905 72.5396 813.861 71.2686 814.353C70.6602 814.589 69.7464 814.922 69.1998 815.275C68.276 815.87 66.7576 816.157 66.0248 816.998C65.3395 817.785 64.6732 818.695 64.304 819.673C63.8769 820.805 63.5121 822.111 63.3441 823.31C63.2698 823.841 63.8823 825.093 63.9467 825.639C64.161 827.456 65.4248 828.436 67.1907 829.086C68.7976 829.601 68.6093 829.605 69.8517 829.779C70.215 829.811 70.8254 829.634 71.1981 829.588C71.6905 829.526 72.0179 829.402 72.4913 829.252C72.818 829.149 73.3994 828.903 73.7077 828.761C74.4844 828.404 75.1502 828.258 75.9086 827.857C76.7824 827.395 77.29 827.115 78.0909 826.517C79.1408 825.732 79.6538 824.824 80.2004 823.626C80.3876 823.215 80.3158 822.538 80.5463 821.948C81.0928 820.395 81.1041 819.283 80.4542 817.718C80.1572 817.003 79.7246 816.397 79.197 815.854C78.8384 815.486 78.4303 814.923 77.9771 814.677C77.4585 814.395 76.9665 814.074 76.3973 813.972C75.7957 813.865 75.283 813.643 74.6696 813.726Z" fill="#333333"/>
<circle cx="75" cy="975" r="67.5" fill="#FBF1A9"/>
<path d="M84.7041 946.235C85.0513 947.055 85.4629 947.821 86.1447 948.599C87.4265 950.062 88.2669 951.14 89.2922 952.796C91.8312 956.898 93.5343 961.344 93.6266 966.164C93.676 968.722 93.4375 971.485 93.2972 974.03C93.0747 978.067 92.4857 982.218 90.1433 985.657C89.6773 986.341 89.0193 986.804 88.4534 987.391C86.8427 989.061 84.8649 990.848 82.8299 991.981C82.0991 992.388 81.2111 992.364 80.4637 992.767C77.7348 994.235 75.3062 995.831 72.2793 996.696C68.8792 997.667 65.4318 997.646 61.9225 997.015C60.7641 996.807 59.877 996.543 58.7341 996.325C57.8525 996.161 57.148 996.147 56.3614 996.273C57.1349 997.475 58.4058 998.013 59.5965 998.661C62.4608 1000.22 64.765 1001.42 67.7802 1002.65C70.9168 1003.93 74.3015 1005.38 77.7595 1005.4C79.8866 1005.41 81.8086 1004.86 83.821 1004.29C85.4992 1003.81 87.2477 1002.99 88.8298 1002.23C91.822 1000.78 94.3639 998.679 96.6644 996.309C98.4759 994.442 100.261 992.634 101.376 990.2C103.367 985.855 104.154 981.34 104.275 976.565C104.343 973.845 104.269 971.247 103.583 968.575C103.136 966.837 102.336 964.915 101.568 963.294C100.004 959.99 97.9382 956.996 95.4656 954.302C94.0323 952.741 92.4972 951.389 90.9922 949.928C89.6224 948.599 88.7175 947.984 87.1286 946.944C86.3195 946.414 85.5946 946.072 84.7041 946.235Z" fill="#333333"/>
<path d="M70.8842 954.95C68.3777 955.288 66.1563 955.433 63.7617 956.361C62.6153 956.805 61.408 957.555 60.3783 958.219C58.6377 959.342 56.4796 960.333 55.0989 961.918C53.8078 963.4 52.7764 965.255 52.0807 967.098C51.2761 969.23 50.5608 971.607 50.2444 973.866C50.1043 974.866 50.3434 976.254 50.4647 977.283C50.8685 980.706 53.1161 982.765 56.1416 984.141C58.3017 985.049 59.2057 985.379 61.3053 985.345C62.0022 985.315 62.8389 985.072 63.541 984.985C64.4687 984.87 65.3866 984.785 66.2786 984.503C66.8939 984.308 67.5881 983.895 68.1688 983.628C69.6322 982.956 71.0032 982.441 72.432 981.685C74.0782 980.814 75.6203 980.176 77.1294 979.048C79.1073 977.57 80.4754 975.308 81.5051 973.05C81.8579 972.276 81.9194 971.303 82.207 970.391C83.0833 967.408 83.308 964.566 82.0838 961.619C81.5241 960.272 80.6588 959.23 79.6648 958.207C78.9891 957.513 78.2704 956.704 77.4165 956.241C76.4396 955.71 75.3121 955.405 74.2396 955.213C73.1062 955.011 72.0399 954.794 70.8842 954.95Z" fill="#333333"/>
<circle cx="75" cy="1125" r="67.5" fill="#FBF1A9"/>
<path d="M92.7033 1097.3C92.9169 1098.31 93.3296 1099.27 93.7275 1100.29C94.4753 1102.21 94.9913 1104 95.3707 1106.03C96.31 1111.06 96.0151 1116.46 94.3621 1121.3C93.4849 1123.86 92.2123 1126.36 91.1509 1128.85C89.4675 1132.79 87.8267 1136.8 84.2469 1139.38C83.5347 1139.89 82.7115 1140.11 81.9348 1140.49C79.7248 1141.57 77.1065 1142.64 74.668 1143.03C73.7923 1143.17 72.9158 1142.83 72.0253 1142.96C68.7739 1143.43 65.7754 1144.14 62.4456 1143.91C58.7053 1143.65 54.9686 1142.48 51.6995 1140.58C50.6204 1139.95 49.657 1139.31 48.632 1138.6C47.85 1138.07 47.1644 1137.52 46.3081 1137.22C46.8389 1138.68 48.0708 1139.55 49.0573 1140.67C51.3422 1143.26 53.4914 1145.65 56.0498 1147.97C58.711 1150.39 61.3177 1153.3 64.7577 1154.57C66.8738 1155.35 68.9854 1155.5 71.1991 1155.66C73.0452 1155.79 75.0017 1155.85 76.856 1155.66C80.3625 1155.3 83.7388 1153.88 86.8896 1152.35C89.3711 1151.15 91.8052 1149.99 93.7977 1147.97C97.3554 1144.36 99.6188 1140.15 101.468 1135.43C102.521 1132.75 103.464 1130.06 103.747 1127.15C103.931 1125.25 103.711 1123.08 103.533 1121.19C103.17 1117.33 102.313 1113.68 100.824 1110.1C99.9606 1108.03 98.8298 1106.15 97.8587 1104.15C96.9748 1102.33 96.0484 1100.91 94.8414 1099.29C94.2267 1098.47 93.6392 1097.65 92.7033 1097.3Z" fill="#333333"/>
<path d="M71.1507 1096.2C68.1622 1096.6 65.1934 1096.88 62.3384 1097.98C60.9717 1098.51 59.7626 1099.46 58.535 1100.25C56.4597 1101.59 54.2015 1102.97 52.5553 1104.86C51.016 1106.63 49.8866 1108.91 49.0573 1111.1C48.0979 1113.64 47.2326 1116.44 46.8553 1119.13C46.6883 1120.33 46.5635 1121.55 46.7081 1122.77C47.1896 1126.85 49.8095 1129.4 53.2814 1131.11C55.4683 1132.17 57.1101 1132.71 59.5054 1132.5C60.3417 1132.43 61.199 1132.18 62.036 1132.07C63.1421 1131.94 64.3713 1131.9 65.4347 1131.57C66.1684 1131.33 66.8162 1130.86 67.5086 1130.55C69.2533 1129.74 70.9401 1129.02 72.6436 1128.12C74.6063 1127.08 76.7073 1126.27 78.5065 1124.93C80.8647 1123.17 82.6757 1120.22 83.9034 1117.53C84.324 1116.61 84.4854 1115.58 84.7627 1114.58C85.7387 1111 86.0979 1107.28 84.6382 1103.77C83.9709 1102.16 82.9167 1100.96 81.7317 1099.74C80.926 1098.92 80.0917 1098.06 79.0736 1097.51C77.9088 1096.88 76.4747 1096.65 75.1961 1096.42C73.8448 1096.18 72.5286 1096.01 71.1507 1096.2Z" fill="#333333"/>
<circle cx="75" cy="1275" r="67.5" fill="#FBF1A9"/>
<path d="M92.8699 1246.78C93.1529 1247.84 93.6849 1248.83 94.0884 1249.86C94.8466 1251.81 95.3975 1253.78 95.7649 1255.85C96.6744 1260.96 96.2206 1266.57 94.5443 1271.48C93.6548 1274.08 92.3504 1276.55 91.2742 1279.07C89.5672 1283.07 88.0851 1287.16 84.4551 1289.78C83.7329 1290.3 82.8981 1290.53 82.1106 1290.91C79.8696 1292.01 77.2146 1293.09 74.7419 1293.49C73.8539 1293.63 72.9651 1293.28 72.0621 1293.41C68.7651 1293.89 65.7246 1294.61 62.3481 1294.38C58.5554 1294.11 54.6416 1292.96 51.3266 1291.04C50.2323 1290.4 49.1847 1289.73 48.1595 1288.98C47.3817 1288.42 46.6912 1287.75 45.812 1287.38C46.4293 1288.86 47.7432 1289.69 48.7574 1290.84C51.0718 1293.47 53.3671 1296.05 55.9614 1298.4C58.6599 1300.85 61.2044 1303.89 64.6926 1305.18C66.8384 1305.97 68.9796 1306.13 71.2244 1306.29C73.0964 1306.42 75.0467 1306.59 76.927 1306.39C80.4827 1306.03 83.9399 1304.49 87.1349 1302.94C89.6511 1301.72 92.1194 1300.55 94.1399 1298.5C97.7474 1294.83 99.9797 1290.56 101.855 1285.78C102.923 1283.06 103.909 1280.3 104.197 1277.35C104.383 1275.43 104.112 1273.24 103.931 1271.32C103.563 1267.41 102.742 1263.75 101.232 1260.12C100.357 1258.01 99.1736 1256.12 98.1888 1254.09C97.2926 1252.24 96.2532 1250.61 95.0292 1248.97C94.4059 1248.14 93.8145 1247.22 92.8699 1246.78Z" fill="#333333"/>
<path d="M71.9283 1244C68.7604 1244.43 65.5272 1244.75 62.5007 1245.92C61.0519 1246.48 59.832 1247.51 58.5306 1248.35C56.3307 1249.76 54.0212 1251.29 52.2761 1253.29C50.6444 1255.16 49.4741 1257.59 48.5948 1259.92C47.5779 1262.61 46.6572 1265.57 46.2572 1268.42C46.0802 1269.69 45.838 1270.86 45.9913 1272.16C46.5016 1276.49 49.263 1279.22 52.9072 1281.05C55.1211 1282.16 57.0129 1282.77 59.5231 1282.51C60.4112 1282.42 61.2823 1282.16 62.1696 1282.05C63.3421 1281.91 64.6813 1281.89 65.8087 1281.53C66.5864 1281.29 67.2249 1280.8 67.9589 1280.46C69.8084 1279.61 71.6106 1278.82 73.4164 1277.86C75.497 1276.76 77.7946 1275.89 79.7019 1274.46C82.2018 1272.59 84.1698 1269.41 85.4712 1266.55C85.9171 1265.57 86.1119 1264.52 86.3882 1263.49C87.4045 1259.69 87.8096 1255.65 86.2623 1251.93C85.5549 1250.22 84.4313 1248.97 83.1751 1247.67C82.3211 1246.8 81.4426 1245.92 80.3634 1245.34C79.1286 1244.67 77.5843 1244.46 76.2288 1244.22C74.7963 1243.96 73.389 1243.81 71.9283 1244Z" fill="#333333"/>
<circle cx="75" cy="1425" r="67.5" fill="#FBF1A9"/>
<path d="M92.8288 1396.69C93.1288 1397.76 93.6898 1398.75 94.0933 1399.79C94.8515 1401.74 95.4095 1403.75 95.7725 1405.82C96.671 1410.93 96.1775 1416.58 94.5013 1421.49C93.6118 1424.09 92.3038 1426.55 91.2275 1429.07C89.5205 1433.06 88.085 1437.16 84.455 1439.78C83.7328 1440.3 82.898 1440.53 82.1105 1440.91C79.8695 1442.01 77.2145 1443.09 74.7418 1443.49C73.8538 1443.63 72.965 1443.28 72.062 1443.41C68.765 1443.89 65.7245 1444.61 62.348 1444.38C58.5553 1444.11 54.6095 1442.97 51.2945 1441.05C50.2003 1440.41 49.1345 1439.73 48.113 1438.98C47.339 1438.41 46.6498 1437.72 45.7678 1437.33C46.4053 1438.8 47.7358 1439.62 48.7535 1440.78C51.0673 1443.41 53.3923 1446.02 55.9865 1448.38C58.685 1450.82 61.2043 1453.89 64.6925 1455.18C66.8383 1455.97 68.9795 1456.13 71.2243 1456.29C73.0963 1456.42 75.038 1456.61 76.9183 1456.42C80.474 1456.05 83.9398 1454.49 87.1348 1452.94C89.651 1451.72 92.1193 1450.55 94.1398 1448.5C97.7473 1444.83 99.9635 1440.56 101.839 1435.78C102.907 1433.06 103.901 1430.3 104.188 1427.34C104.375 1425.42 104.092 1423.24 103.911 1421.32C103.543 1417.4 102.733 1413.75 101.224 1410.12C100.348 1408.02 99.1558 1406.12 98.171 1404.1C97.2748 1402.25 96.2098 1400.56 94.9858 1398.93C94.3625 1398.1 93.7723 1397.15 92.8288 1396.69Z" fill="#333333"/>
<path d="M72.062 1393.59C68.8543 1394.02 65.5805 1394.35 62.516 1395.53C61.049 1396.1 59.8138 1397.14 58.496 1397.99C56.2685 1399.42 53.93 1400.96 52.163 1402.99C50.5108 1404.89 49.3258 1407.35 48.4355 1409.7C47.4058 1412.43 46.4735 1415.42 46.0685 1418.32C45.8893 1419.6 45.644 1420.79 45.7993 1422.1C46.316 1426.48 49.112 1429.25 52.802 1431.1C55.0438 1432.22 56.9593 1432.84 59.501 1432.58C60.4003 1432.49 61.2823 1432.23 62.1808 1432.12C63.368 1431.97 64.724 1431.95 65.8655 1431.59C66.653 1431.34 67.2995 1430.84 68.0428 1430.5C69.9155 1429.64 71.7403 1428.84 73.5688 1427.87C75.6755 1426.76 78.002 1425.87 79.9333 1424.43C82.4645 1422.54 84.4573 1419.31 85.775 1416.42C86.2265 1415.43 86.4238 1414.37 86.7035 1413.32C87.7325 1409.47 88.1428 1405.38 86.576 1401.61C85.8598 1399.89 84.722 1398.61 83.45 1397.31C82.5853 1396.42 81.6958 1395.53 80.603 1394.94C79.3528 1394.26 77.789 1394.05 76.4165 1393.81C74.966 1393.55 73.541 1393.39 72.062 1393.59Z" fill="#333333"/>
</svg>
